# xmcd
#
# Track frame offsets:
#	150
#	13010
#	25762
#	38273
#	52968
#	65399
#	78584
#	92840
#	106391
#	120503
#	133272
#	148355
#	163093
#	176384
#	188666
#	204884
#	218180
#	229645
#	241858
#	255250
#
# Disc length: 3562 seconds
# Revision: 0
# Processed by: cddbd v1.5.2PL0 Copyright (c) Steve Scherf et al.
# Submitted via: dBpowerAMP V12.0
#
DISCID=030de814
DTITLE=The Carter Family - The Essential Carter Family [Disc 1]
DYEAR=2013
DGENRE=Country
TTITLE0=Keep on The Sunny Side
TTITLE1=The Storms Are on The Ocean
TTITLE2=Single Girl, Married Girl
TTITLE3=Little Darling, Pal of Mine
TTITLE4=Anchored in Love
TTITLE5=John Hardy Was a Desperate Little Man
TTITLE6=Wildwood Flower
TTITLE7=I'm Thinking Tonight of my Blue Eyes
TTITLE8=My Clinch Mountain Home
TTITLE9=Lula Walls
TTITLE10=Diamonds in The Rough
TTITLE11=Engine One-Forty-Three
TTITLE12=The Foggy Mountain Top
TTITLE13=The Homestead on The Farm
TTITLE14=Motherless Children
TTITLE15=Wabash Cannonball
TTITLE16=Jimmie Brown The Newsboy
TTITLE17=Worried Man Blues
TTITLE18=The Cannon-Ball
TTITLE19=Lonesome Valley
EXTD=
EXTT0=
EXTT1=
EXTT2=
EXTT3=
EXTT4=
EXTT5=
EXTT6=
EXTT7=
EXTT8=
EXTT9=
EXTT10=
EXTT11=
EXTT12=
EXTT13=
EXTT14=
EXTT15=
EXTT16=
EXTT17=
EXTT18=
EXTT19=
PLAYORDER=
